<?xml version="1.0" encoding="iso-8859-1"?>
<!-- Uploaded to: SVG Repo, www.svgrepo.com, Generator: SVG Repo Mixer Tools -->
<svg height="800px" width="800px" version="1.1" id="Layer_1" xmlns="http://www.w3.org/2000/svg" xmlns:xlink="http://www.w3.org/1999/xlink" 
	 viewBox="0 0 512 512" xml:space="preserve">
<g transform="translate(1)">
	<path style="fill:#63D3FD;" d="M255,68.267c14.507,0,29.013,1.707,42.667,5.12c0-1.707,0-3.413,0-5.12
		c0-23.893-18.773-42.667-42.667-42.667s-42.667,19.627-42.667,42.667c0,0.853,0,2.56,0,5.12
		C225.987,69.973,240.493,68.267,255,68.267"/>
	<g>
		<path style="fill:#FFE100;" d="M468.333,486.4H41.667c-18.773,0-34.133-15.36-34.133-34.133v-34.133
			C7.533,399.36,22.893,384,41.667,384h426.667c18.773,0,34.133,15.36,34.133,34.133v34.133
			C502.467,471.04,487.107,486.4,468.333,486.4"/>
		<path style="fill:#FFE100;" d="M459.8,298.667c0-127.147-91.307-230.4-204.8-230.4S50.2,171.52,50.2,298.667V384h409.6V298.667z"
			/>
	</g>
	<g>
		<path style="fill:#FFFFFF;" d="M41.667,384h25.6c-18.773,0-34.133,15.36-34.133,34.133v34.133
			c0,18.773,15.36,34.133,34.133,34.133h-25.6c-18.773,0-34.133-15.36-34.133-34.133v-34.133C7.533,399.36,22.893,384,41.667,384"/>
		<path style="fill:#FFFFFF;" d="M255,68.267c4.267,0,8.533,0,12.8,0.853c-107.52,6.827-192,106.667-192,229.547V384H50.2v-85.333
			C50.2,171.52,141.507,68.267,255,68.267"/>
	</g>
	<g>
		<path style="fill:#FFA800;" d="M468.333,384h-25.6c18.773,0,34.133,15.36,34.133,34.133v34.133
			c0,18.773-15.36,34.133-34.133,34.133h25.6c18.773,0,34.133-15.36,34.133-34.133v-34.133C502.467,399.36,487.107,384,468.333,384"
			/>
		<path style="fill:#FFA800;" d="M255,68.267c-4.267,0-8.533,0-12.8,0.853c107.52,6.827,192,106.667,192,229.547V384h25.6v-85.333
			C459.8,171.52,368.493,68.267,255,68.267"/>
	</g>
	<path d="M468.333,494.933H41.667C17.773,494.933-1,476.16-1,452.267v-34.133c0-23.893,18.773-42.667,42.667-42.667h426.667
		c23.893,0,42.667,18.773,42.667,42.667v34.133C511,476.16,492.227,494.933,468.333,494.933z M41.667,392.533
		c-14.507,0-25.6,11.093-25.6,25.6v34.133c0,14.507,11.093,25.6,25.6,25.6h426.667c14.507,0,25.6-11.093,25.6-25.6v-34.133
		c0-14.507-11.093-25.6-25.6-25.6H41.667z"/>
	<path d="M459.8,392.533H50.2c-5.12,0-8.533-3.413-8.533-8.533v-85.333C41.667,167.253,137.24,59.733,255,59.733
		s213.333,107.52,213.333,238.933V384C468.333,389.12,464.92,392.533,459.8,392.533z M58.733,375.467h392.533v-76.8
		C451.267,176.64,363.373,76.8,255,76.8S58.733,176.64,58.733,298.667V375.467z"/>
	<path d="M212.333,81.92c-1.707,0-3.413-0.853-5.12-1.707c-1.707-1.707-3.413-4.267-3.413-6.827c0-2.56,0-4.267,0-5.12
		c0-28.16,23.04-51.2,51.2-51.2s51.2,23.04,51.2,51.2c0,1.707,0,3.413,0,5.12c0,2.56-1.707,5.12-3.413,5.973
		c-1.707,1.707-4.267,1.707-6.827,1.707c-25.6-5.973-55.467-5.973-81.067,0C214.04,81.92,213.187,81.92,212.333,81.92z M255,59.733
		c11.093,0,23.04,0.853,33.28,2.56c-2.56-16.213-16.213-28.16-33.28-28.16s-30.72,12.8-33.28,29.013
		C231.96,60.587,243.907,59.733,255,59.733z"/>
	<path d="M348.867,221.867c-5.12,0-8.533-3.413-8.533-8.533c0-75.093-38.4-136.533-85.333-136.533s-85.333,61.44-85.333,136.533
		c0,5.12-3.413,8.533-8.533,8.533c-5.12,0-8.533-3.413-8.533-8.533c0-84.48,46.08-153.6,102.4-153.6s102.4,69.12,102.4,153.6
		C357.4,217.6,353.987,221.867,348.867,221.867z"/>
	<path d="M280.6,443.733h-42.667c-14.507,0-25.6-11.093-25.6-25.6c0-5.12,3.413-8.533,8.533-8.533c5.12,0,8.533,3.413,8.533,8.533
		s3.413,8.533,8.533,8.533H280.6c5.12,0,8.533,3.413,8.533,8.533C289.133,440.32,285.72,443.733,280.6,443.733z"/>
	<path d="M237.933,452.267c-5.12,0-8.533-3.413-8.533-8.533V435.2c0-5.12,3.413-8.533,8.533-8.533c5.12,0,8.533,3.413,8.533,8.533
		v8.533C246.467,448,243.053,452.267,237.933,452.267z"/>
	<path d="M263.533,452.267c-5.12,0-8.533-3.413-8.533-8.533V435.2c0-5.12,3.413-8.533,8.533-8.533c5.12,0,8.533,3.413,8.533,8.533
		v8.533C272.067,448,268.653,452.267,263.533,452.267z"/>
</g>
</svg>