<?xml version="1.0" encoding="iso-8859-1"?>
<!-- Uploaded to: SVG Repo, www.svgrepo.com, Generator: SVG Repo Mixer Tools -->
<svg height="800px" width="800px" version="1.1" id="Layer_1" xmlns="http://www.w3.org/2000/svg" xmlns:xlink="http://www.w3.org/1999/xlink" 
	 viewBox="0 0 512 512" xml:space="preserve">
<g transform="translate(1 1)">
	<g>
		<path style="fill:#FFE100;" d="M348.867,192.707H161.133c-5.12,0-8.533-3.413-8.533-8.533s3.413-8.533,8.533-8.533h187.733
			c5.12,0,8.533,3.413,8.533,8.533S353.987,192.707,348.867,192.707z"/>
		<path style="fill:#FFE100;" d="M24.6,260.973H7.533c-5.12,0-8.533-3.413-8.533-8.533s3.413-8.533,8.533-8.533H24.6
			c5.12,0,8.533,3.413,8.533,8.533S29.72,260.973,24.6,260.973z"/>
		<path style="fill:#FFE100;" d="M502.467,260.973H485.4c-5.12,0-8.533-3.413-8.533-8.533s3.413-8.533,8.533-8.533h17.067
			c5.12,0,8.533,3.413,8.533,8.533S507.587,260.973,502.467,260.973z"/>
		<path style="fill:#FFE100;" d="M284.867,233.667c-0.853,0-2.56,0-3.413-0.853c-16.213-7.68-35.84-7.68-52.053,0
			c-4.267,1.707-9.387,0-11.093-4.267c-1.707-4.267,0-9.387,4.267-11.093c20.48-10.24,46.08-10.24,66.56,0
			c4.267,1.707,5.973,6.827,4.267,11.093C290.84,231.96,287.427,233.667,284.867,233.667z"/>
		<path style="fill:#FFE100;" d="M176.493,320.707l-75.093,12.8c-40.107,6.827-76.8-23.893-76.8-64.853v-27.307
			c0-35.84,29.867-65.707,65.707-65.707h75.947c34.987,0,63.147,28.16,63.147,63.147v20.48
			C229.4,289.987,207.213,315.587,176.493,320.707"/>
		<path style="fill:#FFE100;" d="M333.507,320.707l75.947,12.8c40.107,6.827,76.8-23.893,76.8-64.853v-27.307
			c-0.853-35.84-30.72-65.707-66.56-65.707h-75.947c-34.987,0-63.147,28.16-63.147,63.147v20.48
			C280.6,289.987,302.787,315.587,333.507,320.707"/>
	</g>
	<path style="fill:#FFA800;" d="M419.693,179.053h-25.6c36.693,0,65.707,29.867,65.707,65.707v27.307
		c0,32.427-23.04,58.88-52.907,64.853h2.56c40.107,6.827,76.8-23.893,76.8-64.853V244.76
		C485.4,208.067,455.533,179.053,419.693,179.053"/>
	<path style="fill:#FFFFFF;" d="M90.307,175.64h25.6c-35.84,0-65.707,29.867-65.707,65.707v27.307
		c0,32.427,23.04,58.88,52.907,64.853h-2.56c-40.107,6.827-76.8-23.893-76.8-64.853v-27.307
		C24.6,205.507,54.467,175.64,90.307,175.64"/>
	<path d="M348.867,184.173H161.133c-5.12,0-8.533-3.413-8.533-8.533c0-5.12,3.413-8.533,8.533-8.533h187.733
		c5.12,0,8.533,3.413,8.533,8.533C357.4,180.76,353.987,184.173,348.867,184.173z"/>
	<path d="M90.307,342.893c-40.96,0-74.24-33.28-74.24-74.24v-27.307c0-40.96,33.28-74.24,74.24-74.24h75.947
		c39.253,0,71.68,32.427,71.68,71.68v20.48c0,34.987-24.747,64.853-59.733,70.827l-75.947,12.8
		C98.84,342.893,94.573,342.893,90.307,342.893z M90.307,184.173c-31.573,0-57.173,25.6-57.173,57.173v27.307
		c0,31.573,25.6,57.173,57.173,57.173c3.413,0,5.973,0,9.387-0.853l75.947-12.8c26.453-4.267,45.227-27.307,45.227-53.76v-19.627
		c0-29.867-24.747-54.613-54.613-54.613H90.307z"/>
	<path d="M58.733,249.88c-5.12,0-8.533-3.413-8.533-8.533c0-22.187,17.92-40.107,40.107-40.107c5.12,0,8.533,3.413,8.533,8.533
		s-3.413,8.533-8.533,8.533c-12.8,0-23.04,10.24-23.04,23.04C67.267,246.467,63.853,249.88,58.733,249.88z"/>
	<path d="M419.693,342.893L419.693,342.893c-4.267,0-8.533,0-11.947-0.853l-75.947-12.8c-34.987-5.973-59.733-34.987-59.733-70.827
		v-19.627c0-39.253,32.427-71.68,71.68-71.68h75.947c40.96,0,74.24,33.28,74.24,74.24v27.307c0,19.627-7.68,38.4-22.187,52.907
		C458.093,335.213,439.32,342.893,419.693,342.893z M343.747,184.173c-29.867,0-54.613,24.747-54.613,54.613v20.48
		c0,26.453,18.773,49.493,45.227,53.76l75.947,12.8c17.92,3.413,36.693-2.56,49.493-16.213c11.093-11.093,17.067-25.6,17.067-40.96
		v-27.307c0-31.573-25.6-57.173-57.173-57.173H343.747z"/>
	<path d="M24.6,252.44H7.533c-5.12,0-8.533-3.413-8.533-8.533s3.413-8.533,8.533-8.533H24.6c5.12,0,8.533,3.413,8.533,8.533
		C33.133,249.027,29.72,252.44,24.6,252.44z"/>
	<path d="M502.467,252.44H485.4c-5.12,0-8.533-3.413-8.533-8.533s3.413-8.533,8.533-8.533h17.067c5.12,0,8.533,3.413,8.533,8.533
		C511,249.027,507.587,252.44,502.467,252.44z"/>
	<path d="M284.867,225.133c-0.853,0-2.56,0-3.413-0.853c-16.213-7.68-35.84-7.68-52.053,0c-4.267,1.707-9.387,0-11.093-4.267
		c-1.707-4.267,0-9.387,4.267-11.093c20.48-10.24,46.08-10.24,66.56,0c4.267,1.707,5.973,6.827,4.267,11.093
		C290.84,223.427,287.427,225.133,284.867,225.133z"/>
</g>
</svg>