<?xml version="1.0" encoding="iso-8859-1"?>
<!-- Uploaded to: SVG Repo, www.svgrepo.com, Generator: SVG Repo Mixer Tools -->
<svg height="800px" width="800px" version="1.1" id="Layer_1" xmlns="http://www.w3.org/2000/svg" xmlns:xlink="http://www.w3.org/1999/xlink" 
	 viewBox="0 0 512 512" xml:space="preserve">
<g transform="translate(1 1)">
	<g>
		<path style="fill:#FFE100;" d="M265.24,84.333c-5.12,0-8.533-3.413-8.533-8.533v-9.387c-14.507-3.413-25.6-17.067-25.6-33.28
			C231.107,14.36,246.467-1,265.24-1s34.133,15.36,34.133,34.133c0,5.12-3.413,8.533-8.533,8.533s-8.533-3.413-8.533-8.533
			c0-9.387-7.68-17.067-17.067-17.067s-17.067,7.68-17.067,17.067S255.853,50.2,265.24,50.2c5.12,0,8.533,3.413,8.533,8.533V75.8
			C273.773,80.92,270.36,84.333,265.24,84.333z"/>
		<path style="fill:#FFE100;" d="M314.733,114.2c-1.707,0-3.413,0-4.267-0.853L265.24,86.04l-45.227,27.307
			c-4.267,2.56-9.387,0.853-11.947-2.56c-2.56-4.267-0.853-9.387,2.56-11.947l49.493-29.867c2.56-1.707,5.973-1.707,8.533,0
			l49.493,29.867c4.267,2.56,5.12,7.68,2.56,11.947C320.707,112.493,317.293,114.2,314.733,114.2z"/>
		<path style="fill:#FFE100;" d="M383,502.467V237.933c0,0,2.56-60.587,25.6-68.267c0,0,3.413-18.773-76.8-42.667l-25.6-25.6l0,0
			L255,212.333L203.8,101.4L178.2,127c-80.213,23.893-76.8,42.667-76.8,42.667c23.893,7.68,25.6,68.267,25.6,68.267v264.533
			L383,502.467L383,502.467z"/>
		<path style="fill:#FFE100;" d="M127,237.933c0,0-1.707-59.733-24.747-68.267H101.4L7.533,289.133L67.267,331.8L127,300.227
			V237.933z"/>
		<path style="fill:#FFE100;" d="M383,237.933c0,0,1.707-59.733,24.747-68.267h0.853l93.867,119.467L442.733,331.8L383,300.227
			V237.933z"/>
	</g>
	<polygon style="fill:#FDCC00;" points="231.107,161.133 255,212.333 278.893,161.133 	"/>
	<path style="fill:#00DA6C;" d="M323.267,314.733c0,18.773-30.72,34.133-68.267,34.133s-68.267-15.36-68.267-34.133
		S217.453,280.6,255,280.6S323.267,295.96,323.267,314.733"/>
	<path d="M383,511H127c-5.12,0-8.533-3.413-8.533-8.533V237.933c-0.853-21.333-7.68-56.32-19.627-60.587
		c-2.56-0.853-5.12-3.413-5.973-6.827c-1.707-9.387,5.973-29.013,81.067-52.053l23.893-23.893c1.707-1.707,5.12-2.56,7.68-2.56
		c2.56,0.853,5.12,2.56,5.973,5.12L255,191l43.52-93.867l0,0c2.56-5.12,10.24-6.827,14.507-2.56l23.893,23.893
		c74.24,23.04,82.773,41.813,81.067,52.053c-0.853,3.413-2.56,5.12-5.973,6.827c-11.947,4.267-18.773,38.4-19.627,60.587v264.533
		C391.533,507.587,388.12,511,383,511z M135.533,493.933h238.933v-256c0-10.24,3.413-55.467,23.04-71.68
		c-5.12-5.973-21.333-17.067-68.267-31.573c-1.707,0-2.56-0.853-3.413-2.56l-17.067-17.067l-46.08,99.84
		c-1.707,4.267-4.267,5.973-7.68,5.973s-5.973-1.707-7.68-5.12l-46.08-99.84l-17.067,17.067c-0.853,0.853-2.56,1.707-3.413,2.56
		c-46.933,13.653-62.293,25.6-68.267,31.573c19.627,16.213,23.04,61.44,23.04,71.68L135.533,493.933z"/>
	<path d="M67.267,340.333c-1.707,0-3.413-0.853-5.12-1.707L2.413,295.96C0.707,295.107-1,292.547-1,289.987s0-4.267,1.707-6.827
		l93.867-119.467c2.56-3.413,6.827-4.267,10.24-2.56c26.453,10.24,29.867,64.853,30.72,75.947v63.147
		c0,3.413-1.707,5.973-4.267,7.68L71.533,339.48C69.827,340.333,68.973,340.333,67.267,340.333z M19.48,287.427l47.787,34.133
		l50.347-26.453v-57.173c-0.853-18.773-5.973-46.933-15.36-57.173L19.48,287.427z"/>
	<path d="M442.733,340.333c-1.707,0-2.56,0-4.267-0.853l-59.733-31.573c-2.56-1.707-4.267-4.267-4.267-7.68v-62.293
		c0-11.093,3.413-65.707,30.72-75.947c3.413-1.707,7.68,0,10.24,2.56l93.867,119.467C511,285.72,511,288.28,511,290.84
		s-1.707,4.267-3.413,5.973l-59.733,42.667C446.147,339.48,444.44,340.333,442.733,340.333z M391.533,295.107l50.347,26.453
		l47.787-34.133L406.04,180.76c-9.387,10.24-14.507,38.4-15.36,57.173L391.533,295.107z"/>
	<path d="M255,357.4c-43.52,0-76.8-17.92-76.8-42.667c0-24.747,33.28-42.667,76.8-42.667s76.8,17.92,76.8,42.667
		C331.8,339.48,298.52,357.4,255,357.4z M255,289.133c-34.133,0-59.733,13.653-59.733,25.6s25.6,25.6,59.733,25.6
		s59.733-13.653,59.733-25.6C314.733,302.787,289.133,289.133,255,289.133z"/>
	<path d="M272.067,323.267h-34.133c-5.12,0-8.533-3.413-8.533-8.533s3.413-8.533,8.533-8.533h34.133c5.12,0,8.533,3.413,8.533,8.533
		C280.6,319.853,277.187,323.267,272.067,323.267z"/>
	<path d="M255,84.333c-5.12,0-8.533-3.413-8.533-8.533v-9.387c-14.507-3.413-25.6-17.067-25.6-33.28C220.867,14.36,236.227-1,255-1
		s34.133,15.36,34.133,34.133c0,5.12-3.413,8.533-8.533,8.533s-8.533-3.413-8.533-8.533c0-9.387-7.68-17.067-17.067-17.067
		s-17.067,7.68-17.067,17.067S245.613,50.2,255,50.2c5.12,0,8.533,3.413,8.533,8.533V75.8C263.533,80.92,260.12,84.333,255,84.333z"
		/>
	<path d="M255,220.867c-3.413,0-5.973-1.707-7.68-5.12l-23.893-51.2c-0.853-2.56-0.853-5.973,0.853-8.533
		c1.707-2.56,4.267-4.267,6.827-4.267h46.933c2.56,0,5.973,1.707,6.827,4.267c1.707,2.56,1.707,5.12,0.853,8.533l-23.893,51.2
		C260.973,219.16,258.413,220.867,255,220.867z M244.76,169.667L255,191.853l10.24-22.187h-20.48V169.667z"/>
	<path d="M304.493,114.2c-1.707,0-3.413,0-4.267-0.853L255,86.04l-45.227,27.307c-4.267,2.56-9.387,0.853-11.947-2.56
		c-2.56-4.267-0.853-9.387,2.56-11.947l49.493-29.867c2.56-1.707,5.973-1.707,8.533,0l49.493,29.867
		c4.267,2.56,5.12,7.68,2.56,11.947C310.467,112.493,307.053,114.2,304.493,114.2z"/>
</g>
</svg>