<?xml version="1.0" encoding="iso-8859-1"?>
<!-- Uploaded to: SVG Repo, www.svgrepo.com, Generator: SVG Repo Mixer Tools -->
<svg height="800px" width="800px" version="1.1" id="Layer_1" xmlns="http://www.w3.org/2000/svg" xmlns:xlink="http://www.w3.org/1999/xlink" 
	 viewBox="0 0 512.427 512.427" xml:space="preserve">
<g transform="translate(1)">
	<path style="fill:#FFE100;" d="M443.373,51.267L332.44,8.6c0,27.307-11.093,45.227-22.187,58.88
		c-29.867,34.987-79.36,34.987-109.227,0C189.933,53.827,178.84,35.907,178.84,8.6L67.907,51.267L8.173,196.334l85.333,25.6
		l25.6-59.733l17.92,108.373c10.24,52.907,10.24,106.667-1.707,158.72l-16.213,74.24H255.64h136.533l-16.213-74.24
		c-11.947-52.053-11.947-106.667-1.707-158.72l17.92-108.373l25.6,59.733l85.333-25.6L443.373,51.267z"/>
	<g>
		<path style="fill:#FDCC00;" d="M247.107,93.08L247.107,93.08c-17.067-2.56-33.28-11.093-46.08-25.6
			C189.933,53.827,178.84,35.907,178.84,8.6l-68.267,26.453l59.733,84.48L247.107,93.08z"/>
		<path style="fill:#FDCC00;" d="M264.173,93.08L264.173,93.08c17.067-2.56,33.28-11.093,46.08-25.6
			C322.2,53.827,332.44,35.907,332.44,8.6l68.267,26.453l-59.733,84.48L264.173,93.08z"/>
	</g>
	<g>
		<path style="fill:#00DA6C;" d="M137.88,273.134c2.56,11.093,4.267,23.04,5.12,34.133h226.133c0.853-11.093,2.56-23.04,5.12-34.133
			H137.88z"/>
		<path style="fill:#00DA6C;" d="M135.32,429.294l-0.853,5.973h242.347l-1.707-5.973c-1.707-9.387-3.413-18.773-5.12-28.16h-230.4
			C139.587,410.52,137.88,419.907,135.32,429.294"/>
	</g>
	<g>
		<path style="fill:#FFA800;" d="M374.253,270.574l13.653-79.36l-7.68-17.92c-1.707-3.413-5.973-2.56-6.827,0.853l-16.213,96.427
			c-10.24,52.907-10.24,106.667,1.707,158.72l16.213,74.24h17.067l-16.213-74.24C364.013,377.24,363.16,322.627,374.253,270.574"/>
		<polygon style="fill:#FFA800;" points="503.107,196.334 443.373,51.267 426.307,51.267 486.04,196.334 		"/>
	</g>
	<g>
		<path style="fill:#FFFFFF;" d="M137.027,270.574l-13.653-79.36l7.68-17.92c1.707-3.413,5.973-2.56,6.827,0.853l16.213,96.427
			c10.24,52.907,10.24,106.667-1.707,158.72l-16.213,74.24h-17.067l16.213-74.24C147.267,377.24,148.12,322.627,137.027,270.574"/>
		<polygon style="fill:#FFFFFF;" points="8.173,196.334 67.907,51.267 84.973,51.267 25.24,196.334 		"/>
	</g>
	<g>
		<path style="fill:#00AD55;" d="M356.333,273.134c-2.56,11.093-4.267,23.04-5.12,34.133h17.067
			c0.853-11.093,2.56-23.04,5.12-34.133H356.333z"/>
		<path style="fill:#00AD55;" d="M375.96,429.294c-1.707-9.387-3.413-18.773-5.12-28.16h-17.067c1.707,9.387,2.56,18.773,5.12,28.16
			l1.707,5.973h17.067L375.96,429.294z"/>
	</g>
	<path d="M392.173,512.067L392.173,512.067H119.107c-2.56,0-5.12-0.853-6.827-3.413c-1.707-1.707-1.707-4.267-1.707-6.827
		l16.213-74.24c11.093-51.2,11.947-104.107,1.707-155.307l-13.653-79.36l-14.507,33.28c-1.707,4.267-5.973,5.973-10.24,5.12
		L4.76,205.72c-2.56-0.853-4.267-2.56-5.12-4.267c-0.853-2.56-0.853-4.267,0-6.827L59.373,49.56c0.853-2.56,2.56-4.267,5.12-5.12
		L175.427,1.774c2.56-0.853,5.973-0.853,7.68,0.853c2.56,0.853,4.267,3.413,4.267,5.973c0,25.6,10.24,40.96,20.48,53.76
		c12.8,14.507,29.867,23.04,47.787,23.04s34.987-8.533,47.787-23.04c10.24-12.8,20.48-28.16,20.48-53.76
		c0-2.56,1.707-5.12,3.413-6.827c2.56-1.707,5.12-1.707,7.68-0.853l110.933,42.667c2.56,0.853,4.267,2.56,5.12,5.12l59.733,145.067
		c0.853,2.56,0.853,5.12,0,6.827c-0.853,2.56-2.56,3.413-5.12,4.267l-85.333,25.6c-4.267,0.853-8.533-0.853-10.24-5.12
		l-14.507-33.28l-13.653,79.36c-10.24,52.053-9.387,104.107,1.707,156.16l16.213,72.533c0.853,0.853,0.853,2.56,0.853,3.413
		C400.707,507.8,397.293,512.067,392.173,512.067z M129.347,495H381.08l-14.507-64c-11.947-53.76-12.8-108.373-1.707-162.987
		l18.773-107.52c0.853-3.413,3.413-6.827,7.68-6.827c3.413,0,7.68,1.707,8.533,5.12l22.187,52.907l69.12-20.48l-54.613-133.12
		L340.12,20.547c-2.56,23.893-13.653,40.107-23.893,52.053c-15.36,18.773-37.547,29.867-60.587,29.867S210.413,91.374,195.053,72.6
		c-9.387-11.947-20.48-28.16-23.893-52.053L74.733,58.094l-55.467,133.12l69.12,20.48l22.187-52.907
		c1.707-3.413,5.12-5.12,8.533-5.12c3.413,0.853,6.827,3.413,7.68,6.827l17.92,108.373C155.8,322.627,154.947,377.24,143,431
		L129.347,495z"/>
	<path d="M368.28,315.8H143c-4.267,0-7.68-3.413-8.533-7.68c-0.853-11.093-2.56-22.187-5.12-33.28c-0.853-2.56,0-5.12,1.707-6.827
		s4.267-3.413,6.827-3.413H373.4c2.56,0,5.12,0.853,6.827,3.413c1.707,1.707,2.56,4.267,1.707,6.827
		c-1.707,11.093-3.413,22.187-5.12,33.28C376.813,312.387,372.547,315.8,368.28,315.8z M150.68,298.734h210.773
		c0.853-5.973,1.707-11.093,2.56-17.067H148.12C148.973,287.64,149.827,292.76,150.68,298.734z"/>
	<path d="M376.813,443.8H134.467c-2.56,0-5.12-0.853-6.827-3.413c-1.707-1.707-2.56-4.267-1.707-6.827l1.707-5.973
		c1.707-8.533,3.413-17.067,5.12-27.307c0.853-4.267,4.267-7.68,8.533-7.68h230.4c4.267,0,7.68,3.413,8.533,7.68
		c1.707,10.24,3.413,19.627,5.12,27.307l1.707,5.973c0.853,2.56,0,5.12-1.707,6.827C381.933,442.947,379.373,443.8,376.813,443.8z
		 M144.707,426.734h221.867c-0.853-5.12-1.707-11.093-3.413-17.067H148.12C147.267,415.64,145.56,421.614,144.707,426.734z"/>
	<path d="M170.307,128.067c-2.56,0-5.12-1.707-6.827-3.413l-59.733-84.48c-1.707-2.56-1.707-5.12-0.853-7.68
		c0.853-2.56,2.56-4.267,5.12-5.12L176.28,0.92c2.56-0.853,5.973-0.853,7.68,0.853c1.707,1.707,3.413,4.267,3.413,6.827
		c0,25.6,10.24,40.96,20.48,53.76c11.093,12.8,24.747,21.333,40.96,23.04c2.56,0,5.12,1.707,5.973,4.267
		c1.707,2.56,1.707,5.12,0.853,7.68c-0.853,2.56-2.56,4.267-5.12,5.12l-76.8,26.453C172.013,128.067,171.16,128.067,170.307,128.067
		z M124.227,38.467l49.493,70.827l46.933-16.213c-9.387-5.12-17.92-11.947-25.6-20.48c-9.387-11.947-20.48-28.16-23.893-52.053
		L124.227,38.467z"/>
	<path d="M340.973,128.067c-0.853,0-1.707,0-2.56-0.853l-76.8-26.453c-2.56-0.853-4.267-2.56-5.12-5.12
		c-0.853-1.707-0.853-4.267,0.853-6.827c1.707-2.56,3.413-3.413,5.973-4.267c15.36-1.707,29.867-10.24,40.96-23.04
		C313.667,49.56,323.907,34.2,323.907,8.6c0-2.56,1.707-5.12,3.413-6.827c2.56-1.707,5.12-1.707,7.68-0.853l68.267,26.453
		c2.56,0.853,4.267,2.56,5.12,5.12c0.853,2.56,0,5.12-0.853,7.68l-59.733,84.48C346.947,126.36,344.387,128.067,340.973,128.067z
		 M291.48,93.934l46.933,16.213l49.493-70.827l-46.933-18.773c-2.56,24.747-13.653,40.107-23.893,52.053
		C309.4,81.987,300.867,88.814,291.48,93.934z"/>
</g>
</svg>